<svg xmlns="http://www.w3.org/2000/svg" viewBox="0 0 24 24"><path fill="#fc4548" d="M19.36 24H4.64C2.08 24 0 21.92 0 19.36V4.64C0 2.08 2.08 0 4.64 0h14.72C21.92 0 24 2.08 24 4.64v14.72c0 2.56-2.08 4.64-4.64 4.64z"/><path fill="#fc4548" d="M19.36 24H4.64C2.08 24 0 21.92 0 19.36V4.64C0 2.08 2.08 0 4.64 0h14.72C21.92 0 24 2.08 24 4.64v14.72c0 2.56-2.08 4.64-4.64 4.64z"/><path fill="#fff" d="M19.2 6.16h-8.45V5.2c0-.24-.19-.43-.43-.43H3.95c-.24 0-.43.19-.43.43V18.83c0 .66.53 1.19 1.19 1.19H19.2c.66 0 1.19-.53 1.19-1.19V7.35c0-.66-.53-1.19-1.19-1.19zM6.99 9.02s.01 0 0 0l3.6-.01s.01 0 .01.01v3.6s0 .01-.01.01H7s-.01 0-.01-.01zM10 17.77H7.6l-.74-2.28 1.94-1.41 1.94 1.41zm5.03-.01a1.799 1.799 0 111.8-1.8c.01.99-.8 1.8-1.8 1.8zm-2.08-5.14l2.08-3.61 2.08 3.61z"/></svg>